<?xml version="1.0" standalone="no"?>
<!DOCTYPE svg PUBLIC "-//W3C//DTD SVG 20010904//EN"
 "http://www.w3.org/TR/2001/REC-SVG-20010904/DTD/svg10.dtd">
<svg version="1.0" xmlns="http://www.w3.org/2000/svg"
 width="454.000000pt" height="475.000000pt" viewBox="0 0 454.000000 475.000000"
 preserveAspectRatio="xMidYMid meet">
<metadata>
Created by potrace 1.16, written by Peter Selinger 2001-2019
</metadata>
<g transform="translate(0.000000,475.000000) scale(0.100000,-0.100000)"
fill="#000000" stroke="none">
<path d="M2449 4335 c-3 -2 -70 -18 -150 -35 -79 -17 -152 -34 -161 -36 -17
-5 -18 -32 -18 -390 l0 -384 23 0 c12 0 61 11 110 24 l87 25 0 -22 c0 -12 -7
-62 -16 -112 -16 -92 -25 -153 -43 -285 -14 -100 -14 -100 9 -100 11 0 20 6
20 14 0 7 9 38 21 67 42 108 62 160 89 234 12 33 26 69 30 80 42 104 80 208
80 220 0 21 -28 19 -148 -11 -57 -14 -106 -23 -109 -20 -5 5 4 34 27 91 13 31
65 179 99 280 16 50 44 128 61 175 51 140 60 164 60 178 0 11 -61 18 -71 7z"/>
<path d="M1979 4111 c-147 -73 -255 -187 -309 -326 -20 -50 -24 -79 -24 -175
-1 -148 21 -215 115 -357 44 -65 46 -72 28 -76 -15 -4 -36 9 -75 44 -42 38
-62 49 -87 49 -42 0 -47 -5 -37 -38 5 -15 14 -62 21 -104 l13 -78 243 0 243 0
0 44 c0 38 -4 47 -34 70 -44 33 -143 137 -171 179 -117 174 -144 320 -82 457
18 40 77 121 106 146 14 12 37 32 51 44 14 12 43 31 65 42 22 11 42 22 44 24
8 7 -32 84 -43 84 -6 0 -36 -13 -67 -29z"/>
<path d="M2465 4104 c-20 -49 -20 -49 23 -68 21 -10 52 -29 68 -43 16 -14 41
-35 55 -47 73 -62 139 -201 139 -292 0 -138 -87 -302 -235 -442 -80 -76 -85
-83 -85 -121 l0 -41 245 0 245 0 0 29 c0 16 4 40 9 53 4 13 11 49 15 81 l7 57
-39 0 c-34 0 -46 -6 -79 -41 -46 -49 -62 -59 -85 -50 -16 5 -14 12 18 56 46
64 97 166 115 230 23 82 18 237 -11 317 -45 129 -171 262 -306 328 -35 16 -67
30 -73 30 -6 0 -18 -16 -26 -36z"/>
<path d="M4345 2893 c-11 -3 -32 -17 -48 -31 -99 -94 -3 -255 127 -212 91 30
110 172 31 224 -26 17 -81 27 -110 19z m107 -50 c36 -34 44 -73 23 -117 -20
-42 -73 -70 -115 -61 -70 15 -104 112 -59 169 42 53 102 56 151 9z"/>
<path d="M406 2879 c-176 -26 -328 -170 -365 -347 -44 -212 58 -426 246 -515
92 -43 226 -50 330 -18 117 36 229 142 273 258 27 71 37 199 21 272 -36 170
-191 326 -344 346 -86 12 -103 12 -161 4z m171 -184 c48 -20 118 -90 144 -143
31 -64 32 -177 2 -242 -74 -163 -275 -216 -410 -109 -183 145 -127 444 95 505
51 15 118 10 169 -11z"/>
<path d="M3167 2860 c-159 -28 -293 -153 -333 -312 -55 -214 59 -436 263 -511
82 -30 216 -29 295 2 63 24 148 85 148 105 0 12 -91 96 -104 96 -4 0 -24 -13
-46 -29 -171 -124 -420 12 -420 229 0 225 269 358 438 215 l30 -25 53 48 c37
34 51 53 46 65 -9 24 -107 86 -161 102 -63 19 -151 25 -209 15z"/>
<path d="M1080 2854 c0 -4 -31 -191 -70 -416 -38 -225 -70 -415 -70 -424 0
-12 14 -14 83 -12 l82 3 41 240 c22 132 42 246 45 253 2 7 42 -102 89 -243
l85 -255 77 0 76 0 83 249 c46 138 86 248 89 245 3 -3 23 -114 45 -247 l41
-242 82 -3 c63 -2 82 0 82 10 0 15 -127 791 -135 826 -5 21 -11 22 -88 22
l-82 0 -95 -285 c-52 -156 -97 -281 -101 -277 -4 4 -48 131 -98 282 l-90 275
-86 3 c-47 1 -85 0 -85 -4z"/>
<path d="M2030 2430 l0 -430 330 0 330 0 0 75 0 75 -240 0 -240 0 0 110 0 110
215 0 215 0 0 80 0 80 -215 0 -215 0 0 90 0 90 230 0 230 0 0 75 0 75 -320 0
-320 0 0 -430z"/>
<path d="M3826 2443 c-87 -230 -161 -424 -164 -431 -3 -10 17 -12 93 -10 l98
3 32 90 33 90 168 0 169 0 34 -92 34 -93 98 0 c55 0 99 1 99 3 0 1 -76 193
-169 427 l-168 425 -99 3 -99 2 -159 -417z m307 62 c25 -66 48 -128 52 -137 7
-17 -2 -18 -99 -18 -58 0 -106 2 -106 4 0 4 58 164 92 255 5 13 10 22 13 20 2
-2 24 -58 48 -124z"/>
<path d="M3240 2435 l0 -75 100 0 99 0 86 75 86 75 -185 0 -186 0 0 -75z"/>
<path d="M4381 1844 c-23 -30 -28 -83 -8 -103 13 -13 -3 -30 -68 -72 l-30 -19
39 0 c34 0 46 7 82 45 51 52 73 112 56 150 -15 33 -45 32 -71 -1z"/>
<path d="M1650 1675 l0 -55 194 0 195 0 60 50 c34 28 61 53 61 55 0 3 -115 5
-255 5 l-255 0 0 -55z"/>
<path d="M73 1613 l-43 -4 0 -217 c0 -237 6 -278 51 -334 25 -32 29 -45 29
-102 0 -121 64 -232 168 -294 l47 -27 860 -3 c473 -2 874 0 892 3 18 3 46 17
62 30 26 22 30 23 42 9 36 -44 38 -44 636 -44 629 0 607 -2 679 66 l31 30 43
-38 c53 -47 102 -61 205 -56 99 4 155 30 224 103 79 83 96 124 96 230 0 78 -4
97 -27 140 -36 68 -111 139 -181 171 -51 23 -68 26 -140 22 -99 -4 -156 -29
-224 -96 -58 -59 -91 -129 -102 -221 -5 -40 -17 -83 -26 -97 -34 -53 -45 -54
-558 -54 -321 0 -485 4 -508 11 -55 18 -69 42 -69 118 0 48 -6 79 -24 116 -28
60 -53 85 -126 122 -55 28 -56 28 -300 33 -205 5 -250 9 -277 23 -43 23 -51
57 -24 95 40 56 68 62 294 62 l206 0 128 98 128 97 -359 3 c-418 3 -437 0
-516 -74 -65 -61 -103 -146 -103 -234 -1 -53 4 -76 29 -125 34 -67 70 -96 148
-122 41 -13 102 -17 302 -21 302 -4 294 -1 294 -112 0 -58 -3 -71 -19 -80 -13
-7 -288 -10 -821 -10 -904 0 -855 -4 -891 74 -17 37 -19 72 -19 379 l0 337
-97 -2 c-54 -1 -117 -3 -140 -5z m3730 -527 c41 -16 83 -66 92 -105 14 -63
-49 -138 -123 -148 -100 -12 -180 109 -127 191 18 27 90 76 113 76 7 0 27 -6
45 -14z"/>
<path d="M4300 1125 l0 -495 100 0 100 0 0 495 0 495 -100 0 -100 0 0 -495z"/>
</g>
</svg>
