<svg xmlns="http://www.w3.org/2000/svg" xmlns:xlink="http://www.w3.org/1999/xlink" version="1.1" width="1080" height="1080" xml:space="preserve"><rect id="backgroundrect" width="100%" height="100%" x="0" y="0" fill="none" stroke="none" data-darkreader-inline-stroke="" style="--darkreader-inline-stroke: none;"/>
<desc>Created with Fabric.js 5.2.4</desc>
<defs>
</defs>


















<g class="currentLayer" style=""><title>Layer 1</title><g id="e126aeeb-d0de-44a4-935f-cb2e582631ac" class="" fill="#ff6a00" fill-opacity="1" data-darkreader-inline-fill="" style="--darkreader-inline-fill: #ff791a;">
</g><g id="325ead2c-ff0f-4046-b3f2-593ce7c4ca2b" class="" fill="#ff6a00" fill-opacity="1" data-darkreader-inline-fill="" style="--darkreader-inline-fill: #cc5500;">
<rect style="stroke: none; stroke-width: 1; stroke-dasharray: none; stroke-linecap: butt; stroke-dashoffset: 0; stroke-linejoin: miter; stroke-miterlimit: 4; fill-rule: nonzero; opacity: 1; visibility: hidden; --darkreader-inline-stroke: none; --darkreader-inline-fill: #cc5500;" vector-effect="non-scaling-stroke" x="-540" y="-540" rx="0" ry="0" width="1080" height="1080" transform="matrix(1,0,0,1,540,540) " stroke-width="0" id="svg_1" data-darkreader-inline-stroke="" data-darkreader-inline-fill="" fill="#ff6a00" fill-opacity="1"/>
</g><g id="svg_2" class="" fill="#ff6a00" fill-opacity="1" data-darkreader-inline-fill="" style="--darkreader-inline-fill: #ff791a;">
<g style="--darkreader-inline-fill: #ff791a;" stroke-width="0" id="svg_3" fill="#ff6a00" fill-opacity="1" data-darkreader-inline-fill="">
</g>
</g><g id="svg_4" class="" fill="#ff6a00" fill-opacity="1" data-darkreader-inline-fill="" style="--darkreader-inline-fill: #ff791a;">
<g style="--darkreader-inline-fill: #ff791a;" stroke-width="0" id="svg_5" fill="#ff6a00" fill-opacity="1" data-darkreader-inline-fill="">
</g>
</g><g id="svg_6" class="" fill="#ff6a00" fill-opacity="1" data-darkreader-inline-fill="" style="--darkreader-inline-fill: #cc5500;" opacity="1">
<path style="stroke: none; stroke-width: 1; stroke-dasharray: none; stroke-linecap: butt; stroke-dashoffset: 0; stroke-linejoin: miter; stroke-miterlimit: 4; fill-rule: nonzero; --darkreader-inline-stroke: none; --darkreader-inline-fill: #cc5500;" vector-effect="non-scaling-stroke" d="M478.46613906250013,757.0699441406252 L478.46613906250013,561.807344140625 L621.5025390625001,561.807344140625 L621.5025390625001,594.8065441406252 L517.5987390625,594.8065441406252 L517.5987390625,638.1693441406251 L614.2173390624998,638.1693441406251 L614.2173390624998,671.165944140625 L517.5987390625,671.165944140625 L517.5987390625,724.0707441406248 L625.2829390625,724.0707441406248 L625.2829390625,757.0699441406248 L478.46873906249994,757.0699441406248 zM1042.4711390625002,757.0699441406252 L1000.3251390625,757.0699441406252 L983.6383390625001,712.6177441406251 L906.1375390625001,712.6177441406251 L890.0799390625,757.0699441406252 L848.6983390625,757.0699441406252 L923.7239390625002,561.807344140625 L965.0613390625001,561.807344140625 L1042.4711390625002,757.0699441406252 zM970.9529390625003,679.6185441406251 L944.1001390625004,607.348944140625 L918.0117390625003,679.6185441406251 L970.9529390625003,679.6185441406251 z" stroke-linecap="round" stroke-width="0" id="svg_7" data-darkreader-inline-stroke="" data-darkreader-inline-fill="" fill="#ff6a00" fill-opacity="1" opacity="1"/>
</g><g id="svg_8" class="" fill="#ff6a00" fill-opacity="1" data-darkreader-inline-fill="" style="--darkreader-inline-fill: #cc5500;">
<polygon style="stroke: none; stroke-width: 1; stroke-dasharray: none; stroke-linecap: butt; stroke-dashoffset: 0; stroke-linejoin: miter; stroke-miterlimit: 4; fill-rule: evenodd; opacity: 1; --darkreader-inline-stroke: none; --darkreader-inline-fill: #cc5500;" vector-effect="non-scaling-stroke" points="742.2724014282226,637.9815999603271 824.0475985717774,637.9815999603271 786.8806001091003,670.1384000396728 742.2724014282226,670.1384000396728 " stroke-width="0" id="svg_9" data-darkreader-inline-stroke="" data-darkreader-inline-fill="" fill="#ff6a00" fill-opacity="1"/>
</g><g id="svg_10" class="" fill="#ff6a00" fill-opacity="1" data-darkreader-inline-fill="" style="--darkreader-inline-fill: #cc5500;">
<path style="stroke: none; stroke-width: 1; stroke-dasharray: none; stroke-linecap: butt; stroke-dashoffset: 0; stroke-linejoin: miter; stroke-miterlimit: 4; fill-rule: evenodd; opacity: 1; --darkreader-inline-stroke: none; --darkreader-inline-fill: #cc5500;" vector-effect="non-scaling-stroke" d="M745.6190253906251,561.2022406250001 C772.115625390625,561.2022406250001 796.0772253906249,572.1586406250001 813.3204253906252,589.825640625 L790.4144253906251,611.897040625 C778.9406253906251,600.3322406250002 763.104025390625,593.1822406250003 745.6190253906251,593.1822406250003 C710.586625390625,593.1822406250003 682.1868253906249,621.8784406250002 682.1868253906249,657.2800406250003 C682.1868253906249,692.6790406250002 710.5866253906248,721.3778406250001 745.6190253906251,721.3778406250001 C763.106625390625,721.3778406250001 778.9406253906251,714.2278406250002 790.4144253906251,702.6630406250003 L813.3204253906252,724.7318406250004 C796.0798253906252,742.4014406250003 772.1156253906253,753.3578406250003 745.6190253906251,753.3578406250003 C693.109425390625,753.3578406250003 650.5370253906252,710.3408406250005 650.5370253906252,657.2800406250005 C650.5370253906252,604.2166406250003 693.106825390625,561.2022406250005 745.6190253906251,561.2022406250005 z" stroke-linecap="round" stroke-width="0" id="svg_11" data-darkreader-inline-stroke="" data-darkreader-inline-fill="" fill="#ff6a00" fill-opacity="1"/>
</g><g id="svg_12" class="" fill="#ff6a00" fill-opacity="1" data-darkreader-inline-fill="" style="--darkreader-inline-fill: #cc5500;">
<path style="stroke: none; stroke-width: 1; stroke-dasharray: none; stroke-linecap: butt; stroke-dashoffset: 0; stroke-linejoin: miter; stroke-miterlimit: 4; fill-rule: evenodd; opacity: 1; --darkreader-inline-stroke: none; --darkreader-inline-fill: #cc5500;" vector-effect="non-scaling-stroke" d="M834.0284457031249,1034.408445703125 C827.856045703125,1042.0394457031252 820.5474457031249,1048.9450457031248 812.0168457031249,1053.3312457031248 C808.015445703125,1055.387845703125 803.7332457031251,1056.7710457031249 799.344445703125,1057.652445703125 L799.344445703125,1058.9420457031247 L557.120645703125,1058.9420457031247 C549.9472457031251,1058.9420457031247 542.8284457031249,1057.868245703125 536.4896457031249,1054.2854457031249 C531.7940457031249,1051.6334457031248 527.790045703125,1047.9726457031252 524.3528457031249,1043.8022457031252 C520.5906457031248,1048.3132457031252 516.014645703125,1052.054645703125 510.45324570312494,1054.607845703125 C502.7442457031249,1058.1516457031253 493.73264570312483,1058.9420457031251 485.35804570312473,1058.9420457031251 L114.48884570312475,1058.9420457031251 L114.48884570312475,1057.665445703125 C100.44884570312479,1054.886045703125 88.34584570312472,1047.6684457031251 78.19804570312488,1036.8602457031252 C64.79764570312489,1022.5836457031252 57.66064570312483,1005.517245703125 57.66064570312483,985.8092457031249 L57.66064570312483,836.392445703125 L101.57724570312485,836.392445703125 L101.57724570312485,983.3132457031248 C101.57724570312485,991.4694457031247 103.92504570312485,998.512845703125 109.24464570312477,1004.6670457031249 C113.90644570312475,1010.0594457031249 119.55364570312486,1013.2444457031248 126.45404570312485,1014.5652457031248 L345.39744570312484,1014.5652457031248 L345.39744570312484,1014.882445703125 L484.8328457031249,1014.882445703125 C492.36244570312476,1014.882445703125 500.42244570312494,1013.8424457031248 501.9824457031249,1005.353445703125 C502.27884570312483,997.2648457031252 501.19724570312485,988.4092457031251 501.19724570312485,980.2244457031251 C501.19724570312485,976.2542457031249 499.08084570312496,973.474845703125 496.01024570312495,971.1608457031251 C492.3260457031248,968.3814457031252 488.32464570312493,966.9826457031253 483.72524570312487,966.9826457031253 L398.7182457031249,966.9826457031253 C382.61124570312495,966.9826457031253 353.51204570312495,961.7488457031253 342.16564570312505,949.7784457031252 C332.5690457031251,939.6488457031252 324.88084570312503,921.8752457031252 324.88084570312503,907.7650457031251 C324.88084570312503,887.1808457031251 334.09004570312504,868.7754457031252 348.3926457031249,854.4624457031251 C361.47584570312506,841.371445703125 381.95084570312497,836.7096457031251 399.82324570312494,836.7096457031251 L545.571445703125,836.7096457031251 L487.6798457031251,880.7692457031252 L399.929845703125,880.7692457031252 C392.20004570312506,880.7692457031252 385.596045703125,883.2444457031253 379.785045703125,888.3976457031252 C379.15064570312506,888.9618457031253 378.534445703125,889.5442457031253 377.941645703125,890.1500457031251 C369.593045703125,898.6962457031251 364.4190457031249,909.1430457031253 376.0878457031249,916.9924457031251 C376.2490457031249,917.1016457031252 376.41284570312496,917.208245703125 376.576645703125,917.3148457031251 C382.94404570312497,921.3838457031251 391.391445703125,922.923045703125 398.82224570312496,922.923045703125 L469.635845703125,922.923045703125 C487.2560457031251,922.923045703125 504.5876457031251,926.570845703125 519.5974457031251,936.2298457031251 C535.4236457031251,946.411445703125 544.479445703125,961.1690457031251 544.479445703125,980.2140457031252 C544.5574457031252,984.275245703125 544.9318457031251,988.5756457031251 545.202245703125,992.639445703125 C545.431045703125,996.084445703125 545.5532457031251,1000.3120457031251 546.0602457031251,1003.7700457031252 C547.490245703125,1006.8666457031251 552.287245703125,1009.2820457031252 555.0640457031251,1010.4832457031251 C559.806445703125,1012.5294457031251 564.746445703125,1013.9698457031251 569.8736457031251,1014.5704457031251 L783.3908457031251,1014.5704457031251 L784.4074457031251,1014.4586457031252 C792.1606457031249,1013.6162457031252 798.4552457031251,1010.5300457031252 803.4550457031252,1004.4538457031252 C808.6446457031251,998.156645703125 810.8364457031252,990.8974457031251 810.8364457031252,982.730845703125 C810.8364457031252,962.0504457031251 819.2630457031252,944.5186457031251 833.7164457031253,930.0522457031253 C848.1828457031253,915.5754457031252 865.5716457031255,907.1514457031252 886.0492457031252,907.1514457031252 C906.781645703125,907.1514457031252 924.4824457031251,915.6170457031254 939.377845703125,929.9976457031252 C954.3382457031252,944.4406457031254 963.2614457031251,962.1336457031254 963.2614457031251,983.2066457031252 C963.2614457031251,1003.871445703125 954.2914457031251,1021.3018457031252 939.903045703125,1035.6746457031254 C925.4886457031251,1050.078645703125 908.144045703125,1058.9420457031251 887.6820457031248,1058.9420457031251 C878.3324457031248,1058.9420457031251 866.9288457031249,1058.286845703125 858.2396457031249,1054.5272457031251 C848.6300457031249,1050.3698457031255 840.616845703125,1042.8194457031254 834.031045703125,1034.4058457031251 zM1054.5994457031252,835.758045703125 L1054.5994457031252,1058.944645703125 L1010.682845703125,1058.944645703125 L1010.682845703125,835.758045703125 L1054.5994457031252,835.758045703125 zM919.3422457031251,983.367845703125 C919.3422457031251,975.4612457031252 914.9534457031249,968.5114457031251 909.8002457031251,962.8980457031251 C903.7786457031251,956.3434457031252 896.6000457031249,951.8506457031252 887.5754457031252,951.8506457031252 C878.9564457031253,951.8506457031252 871.572445703125,956.3928457031253 865.4676457031252,962.1986457031254 C859.5032457031253,967.8692457031253 854.7530457031252,974.8242457031255 854.7530457031252,983.3704457031255 C854.7530457031252,992.1376457031255 858.1642457031252,999.2460457031256 864.3314457031253,1005.3560457031255 C870.5532457031253,1011.5206457031255 877.7474457031254,1014.8902457031255 886.5224457031253,1014.8902457031255 C895.5392457031254,1014.8902457031255 903.0038457031254,1011.5024457031255 909.5168457031253,1005.2936457031257 C915.8478457031252,999.2590457031255 919.3448457031253,992.2104457031256 919.3448457031253,983.3704457031257 z" stroke-linecap="round" stroke-width="0" id="svg_13" data-darkreader-inline-stroke="" data-darkreader-inline-fill="" fill="#ff6a00" fill-opacity="1"/>
</g><g id="svg_14" class="" fill="#ff6a00" fill-opacity="1" data-darkreader-inline-fill="" style="--darkreader-inline-fill: #cc5500;">
<path style="stroke: none; stroke-width: 1; stroke-dasharray: none; stroke-linecap: butt; stroke-dashoffset: 0; stroke-linejoin: miter; stroke-miterlimit: 4; fill-rule: nonzero; opacity: 1; --darkreader-inline-stroke: none; --darkreader-inline-fill: #cc5500;" vector-effect="non-scaling-stroke" d="M127.48417968749993,1049.9521796875001 C110.66217968750004,1049.9521796875001 96.15157968749986,1043.4703796874999 84.06157968749994,1030.5639796875 C71.91697968749986,1017.6549796875001 65.8719796874999,1002.6217796875001 65.8719796874999,985.4617796875 L65.8719796874999,844.6873796875 L92.68317968749989,844.6873796875 L92.68317968749989,982.9657796874999 C92.68317968749989,993.4827796874999 95.94097968749986,1002.4605796874998 102.46177968749987,1010.0057796875001 C108.97997968749996,1017.5483796875001 117.28697968749987,1021.9033796875001 127.48677968749985,1023.1799796875 L127.48677968749985,1049.9521796875001 zM336.5033796875,1049.9521796875001 L122.70017968749994,1049.9521796875001 L122.70017968749994,1022.8601796875 L336.5033796875,1022.8601796875 L336.5033796875,1049.9521796875001 zM574.9675796875001,1049.9521796875001 L561.8765796875,1049.9521796875001 L556.7779796875,1049.9521796875001 C550.3091796874999,1049.9521796875001 544.8647796875,1048.9589796875002 540.3225796874999,1046.3927796875003 C534.2437796874999,1042.9555796875002 528.7577796875,1036.7779796875002 523.8151796875002,1027.6909796875 C519.5043796875,1036.8819796875002 513.7661796875002,1043.0829796875 506.57197968750006,1046.3927796875003 C500.9403796875001,1048.9797796875 493.7461796875,1049.9521796875001 485.0179796875,1049.9521796875001 L478.3931796874999,1049.9521796875001 L329.4599796875,1049.9521796875001 L329.4599796875,1023.1799796875 L484.49277968749993,1023.1799796875 C499.7833796875,1023.1799796875 508.33997968749986,1017.4417796875 510.1521796874997,1006.0069796875 C510.39397968749995,1004.4729796875001 509.4111796874997,981.6241796874999 509.4111796874997,979.8769796874999 C509.4111796874997,973.6083796875 506.5329796874996,968.2185796874999 500.7895796874998,963.8869796874999 C495.55057968749975,959.9375796875001 489.74477968749966,957.9901796874999 483.3877796874997,957.9901796874999 L398.3781796874997,957.9901796874999 C381.50937968749975,957.9901796874999 356.3387796874997,952.2415796875 348.00577968749974,943.4483796874997 C340.41377968749975,935.4377796874996 333.0947796874997,919.8871796874998 333.0947796874997,907.4123796874997 C333.0947796874997,890.5747796874996 340.2317796874996,874.0985796874998 354.0715796874997,860.2509796874997 C364.91097968749966,849.4037796874995 382.7677796874997,844.9993796874996 399.48577968749964,844.9993796874996 L519.6629796874997,844.9993796874996 L484.4823796874998,871.7741796874996 L399.5897796874998,871.7741796874996 C389.7487796874999,871.7741796874996 381.15057968749977,875.0345796874994 373.8029796874998,881.5527796874994 C373.0281796874999,882.2417796874993 372.2611796875,882.9645796874995 371.5149796874998,883.7289796874995 C355.1141796874998,900.5171796874993 358.4525796874999,915.3865796874995 371.00537968749984,923.8365796874996 C371.2211796874998,923.9821796874996 371.4447796874998,924.1277796874995 371.6657796874998,924.2681796874995 C378.55057968749986,928.6699796874996 388.0275796874997,931.2153796874995 398.47957968749984,931.2153796874995 L469.2931796874998,931.2153796874995 C487.11357968749985,931.2153796874995 502.2637796874999,935.1933796874996 514.6631796874999,943.1675796874995 C528.5991796875,952.1323796874995 535.5879796874997,964.4173796874995 535.5879796874997,979.9289796874996 C535.5879796874997,981.5617796874997 536.9503796874997,1004.3169796874997 537.4573796874997,1005.7885796874996 C539.1733796874998,1010.7857796874998 543.8351796874997,1014.8235796874997 551.3647796874995,1018.0761796874997 C559.1127796874996,1021.4223796874996 566.9257796874997,1023.1773796874998 574.9701796874997,1023.1773796874998 L574.9701796874997,1049.9495796874999 zM790.4477796875001,1049.9521796875001 L568.3427796875001,1049.9521796875001 L568.3427796875001,1022.8601796875 L790.4477796875001,1022.8601796875 L790.4477796875001,1049.9521796875001 zM954.3647796875,982.8565796875 C954.3647796875,999.8579796875001 947.4253796875003,1015.3149796875 933.5465796875001,1029.1807796875 C919.6703796875001,1043.0439796874998 904.2653796875002,1049.9521796875001 887.3367796875002,1049.9521796875001 C875.7173796875004,1049.9521796875001 867.0411796875001,1048.7327796875002 861.2613796875003,1046.2341796875 C851.6933796875003,1042.0949796875 842.5465796875003,1033.1145796875 833.8209796875003,1019.3007796874999 C825.4073796875005,1032.0511796875 816.7233796875003,1040.6883796875 807.7975796875003,1045.2773796875 C801.7421796875003,1048.3895796875 794.1293796875004,1049.9521796875 784.9799796875002,1049.9521796875 L784.9799796875002,1022.7015796874998 C795.2317796875002,1021.5861796874997 803.4347796875002,1017.2285796874996 809.6903796875001,1009.6339796874997 C815.9459796875003,1002.0367796874996 819.0477796875002,992.9549796874996 819.0477796875002,982.3833796874997 C819.0477796875002,964.9581796874995 825.8181796875001,949.4335796874996 839.3927796875,935.8485796874998 C852.9959796875,922.2375796874996 868.4113796875001,915.4489796874996 885.7091796875002,915.4489796874996 C903.2149796875001,915.4489796874996 918.9891796875002,922.2479796874995 933.1305796875004,935.9005796874997 C947.2719796875003,949.5531796874998 954.3699796875003,965.2233796874996 954.3699796875003,982.8591796874996 zM927.5535796875001,983.0177796875 C927.5535796875001,974.0399796874999 923.5937796875003,965.2363796875 915.7235796875002,956.6667796874999 C907.2969796875002,947.4913796874998 897.7965796875001,942.8555796874998 887.2301796875001,942.8555796874998 C877.5035796875002,942.8555796874998 868.1461796875001,947.1039796875 859.2619796875001,955.5513796874998 C850.3257796875002,964.0507796874997 845.8563796875001,973.1871796874998 845.8563796875001,983.0151796874998 C845.8563796875001,993.7453796875 849.9045796875,1003.1495796874997 857.9983796874999,1011.1705796874999 C866.0947796875,1019.1915796875 875.5041796875,1023.1773796875 886.1771796875,1023.1773796875 C897.0607796874999,1023.1773796875 906.6807796875,1019.1915796875 915.0397796875002,1011.2225796875 C923.3987796875001,1003.2535796875002 927.5509796875001,993.8519796875 927.5509796875001,983.0151796875 zM1045.7053796875002,844.0477796875 L1045.7053796875002,1049.9521796875 L1018.8941796875001,1049.9521796875 L1018.8941796875001,844.0477796874998 L1045.7053796875002,844.0477796874998 z" stroke-linecap="round" stroke-width="0" id="svg_15" data-darkreader-inline-stroke="" data-darkreader-inline-fill="" fill="#ff6a00" fill-opacity="1"/>
</g><g id="svg_16" class="" fill="#ff6a00" fill-opacity="1" data-darkreader-inline-fill="" style="--darkreader-inline-fill: #cc5500;">
<polygon style="stroke: none; stroke-width: 1; stroke-dasharray: none; stroke-linecap: butt; stroke-dashoffset: 0; stroke-linejoin: miter; stroke-miterlimit: 4; fill-rule: nonzero; opacity: 1; --darkreader-inline-stroke: none; --darkreader-inline-fill: #cc5500;" vector-effect="non-scaling-stroke" points="392.95000000000005,809.87619972229 507.87,809.87619972229 480.245,832.82380027771 392.95000000000005,832.82380027771 " stroke-width="0" id="svg_17" data-darkreader-inline-stroke="" data-darkreader-inline-fill="" fill="#ff6a00" fill-opacity="1"/>
</g><g id="svg_18" class="" fill="#ff6a00" fill-opacity="1" data-darkreader-inline-fill="" style="--darkreader-inline-fill: #cc5500;">
<path style="stroke: none; stroke-width: 1; stroke-dasharray: none; stroke-linecap: butt; stroke-dashoffset: 0; stroke-linejoin: miter; stroke-miterlimit: 4; fill-rule: nonzero; opacity: 1; --darkreader-inline-stroke: none; --darkreader-inline-fill: #cc5500;" vector-effect="non-scaling-stroke" d="M993.6454000000001,820.3025593749999 C988.2608,825.6325593749998 983.7992000000002,828.2949593749997 980.1592,828.2949593749997 L972.1356000000001,828.2949593749997 C975.9992,826.4567593749998 980.4946,823.4537593749999 985.6218000000001,819.3249593749997 C990.2654,815.5705593749999 993.7936000000002,812.265959375 996.1700000000001,809.3773593749997 C993.9028000000001,807.9889593749997 992.1946,806.5251593749997 991.0454,804.9859593749998 C989.5972000000002,803.0749593749995 988.8510000000001,800.9715593749997 988.8510000000001,798.7199593749995 C988.8510000000001,793.8787593749996 990.2654,789.5991593749995 993.0864000000001,785.8811593749995 C995.9074000000003,782.1657593749997 998.9936000000002,780.3249593749995 1002.3008,780.3249593749995 C1004.23,780.3249593749995 1005.9408000000001,781.3389593749994 1007.5008,783.4059593749996 C1009.027,785.4703593749996 1009.8044,787.9455593749997 1009.8044,790.9121593749996 C1009.8044,792.3005593749997 1009.6197999999999,793.7279593749995 1009.2090000000001,795.2307593749995 C1006.336,806.0415593749995 1001.1828,812.6897593749995 993.6454000000001,820.3051593749994 zM1002.8935999999999,797.5525593749999 C1002.8935999999999,795.5661593749999 1002.1890000000001,793.7617593749999 1000.8136,792.0743593749999 C999.4017999999999,790.384359375 998.0654,789.560159375 996.729,789.560159375 C995.9879999999998,789.560159375 995.4289999999999,789.822759375 995.0208,790.3115593749999 C994.6126000000002,790.839359375 994.4254000000001,791.361959375 994.4254000000001,791.8533593750001 C994.4254000000001,793.4653593749999 995.3535999999999,795.1163593750002 997.1736000000001,796.879159375 L1002.0044,800.597159375 C1002.5998,799.133359375 1002.8935999999999,798.1193593750002 1002.8935999999999,797.5551593750001 z" stroke-linecap="round" stroke-width="0" id="svg_19" data-darkreader-inline-stroke="" data-darkreader-inline-fill="" fill="#ff6a00" fill-opacity="1"/>
</g><g id="svg_20" class="" fill="#ff6a00" fill-opacity="1" data-darkreader-inline-fill="" style="--darkreader-inline-fill: #cc5500;">
<path style="stroke: none; stroke-width: 1; stroke-dasharray: none; stroke-linecap: butt; stroke-dashoffset: 0; stroke-linejoin: miter; stroke-miterlimit: 4; fill-rule: nonzero; opacity: 1; --darkreader-inline-stroke: none; --darkreader-inline-fill: #cc5500;" vector-effect="non-scaling-stroke" d="M35.74781269531252,835.3050000000001 L35.74781269531252,927.6153999999999 C35.24861269531243,946.8137999999999 44.5332126953125,958.2511999999999 51.353012695312486,965.175 L51.353012695312486,835.3076000000001 L35.74781269531252,835.3076000000001 z" stroke-linecap="round" stroke-width="0" id="svg_21" data-darkreader-inline-stroke="" data-darkreader-inline-fill="" fill="#ff6a00" fill-opacity="1"/>
</g><g id="svg_22" class="" fill="#ff6a00" fill-opacity="1" data-darkreader-inline-fill="" style="--darkreader-inline-fill: #cc5500;">
<path style="stroke: none; stroke-width: 1; stroke-dasharray: none; stroke-linecap: butt; stroke-dashoffset: 0; stroke-linejoin: miter; stroke-miterlimit: 4; fill-rule: nonzero; opacity: 1; --darkreader-inline-stroke: none; --darkreader-inline-fill: #cc5500;" vector-effect="non-scaling-stroke" d="M138.94900253906246,557.079994921875 C166.21000253906243,557.079994921875 189.65680253906248,567.0951949218753 209.26860253906239,587.0241949218752 C228.90120253906252,606.9765949218751 238.72140253906252,631.3047949218752 238.72140253906252,659.977594921875 C238.72140253906252,688.4267949218751 229.03380253906244,712.4819949218751 209.67420253906255,732.1639949218753 C190.3302025390625,751.8225949218751 166.8392025390625,761.6999949218754 139.21940253906257,761.6999949218754 C110.25800253906255,761.6999949218754 86.23140253906251,751.5495949218754 67.1110025390625,731.3501949218754 C47.9724025390625,711.1273949218754 38.37580253906253,687.1163949218754 38.37580253906253,659.2989949218755 C38.37580253906253,640.7115949218754 42.8478025390624,623.5593949218754 51.75800253906243,607.9203949218755 C60.65000253906237,592.3203949218756 72.93240253906242,579.9053949218757 88.50640253906249,570.7871949218755 C104.11680253906252,561.6455949218756 120.95960253906253,557.0799949218755 138.9516025390625,557.0799949218755 zM138.41340253906242,593.4435949218749 C120.64500253906238,593.4435949218749 105.70020253906239,599.751194921875 93.61020253906236,612.2597949218749 C81.49940253906243,624.7969949218751 75.43880253906241,640.711594921875 75.43880253906241,660.0659949218749 C75.43880253906241,681.596594921875 83.07760253906247,698.6239949218749 98.31100253906243,711.1767949218748 C110.18780253906232,720.9553949218749 123.73380253906248,725.877194921875 139.08680253906232,725.877194921875 C156.41060253906244,725.877194921875 171.17600253906232,719.478594921875 183.35440253906233,706.7905949218749 C195.55360253906235,694.0739949218749 201.66100253906222,678.429794921875 201.66100253906222,659.798194921875 C201.66100253906222,641.252394921875 195.50680253906228,625.5613949218749 183.21920253906228,612.7121949218748 C170.94720253906235,599.886394921875 156.00500253906227,593.4435949218749 138.4134025390623,593.4435949218749 zM277.6876025390625,561.9653949218751 L313.27120253906253,561.9653949218751 L358.1654025390625,697.8829949218751 L403.28840253906253,561.9653949218751 L438.7836025390626,561.9653949218751 L471.1016025390627,756.8171949218751 L435.6948025390626,756.8171949218751 L415.10540253906265,633.7487949218752 L374.2854025390626,756.8171949218751 L341.8764025390626,756.8171949218751 L301.2332025390625,633.7487949218752 L280.24080253906266,756.8171949218751 L244.4336025390627,756.8171949218751 L277.69280253906265,561.9653949218751 z" stroke-linecap="round" stroke-width="0" id="svg_23" data-darkreader-inline-stroke="" data-darkreader-inline-fill="" fill="#ff6a00" fill-opacity="1"/>
</g><g id="svg_24" class="selected" fill="#ff6a00" fill-opacity="1" data-darkreader-inline-fill="" style="--darkreader-inline-fill: #cc5500;">
<path style="stroke: none; stroke-width: 1; stroke-dasharray: none; stroke-linecap: butt; stroke-dashoffset: 0; stroke-linejoin: miter; stroke-miterlimit: 4; fill-rule: evenodd; opacity: 1; --darkreader-inline-stroke: none; --darkreader-inline-fill: #cc5500;" vector-effect="non-scaling-stroke" d="M592.818440625,126.69498476562501 C730.940840625,195.30118476562518 735.5090406249999,334.772984765625 586.1650406249998,453.5513847656249 L586.4848406249998,479.361584765625 L749.6972406249997,480.17538476562515 L763.3576406249997,407.47158476562515 C734.8590406249998,406.7253847656251 736.4970406249997,410.3367847656251 723.0472406249999,424.9071847656252 C707.5070406249997,441.7421847656252 710.4528406249999,439.9949847656252 679.1930406249999,438.46618476562514 C681.9906406249997,431.66978476562497 767.7750406249997,350.7343847656251 737.5864406249998,237.054584765625 C721.3988406249998,176.08978476562504 662.428240625,121.0555847656251 603.3146406249998,103.02458476562515 C599.9034406249998,113.1307847656251 592.8158406249997,126.69498476562512 592.8158406249997,126.69498476562512 z" stroke-linecap="round" stroke-width="0" id="svg_25" data-darkreader-inline-stroke="" data-darkreader-inline-fill="" fill="#ff6a00" fill-opacity="1"/>
</g><g id="svg_26" class="" fill="#ff6a00" fill-opacity="1" data-darkreader-inline-fill="" style="--darkreader-inline-fill: #cc5500;">
<path style="stroke: none; stroke-width: 1; stroke-dasharray: none; stroke-linecap: butt; stroke-dashoffset: 0; stroke-linejoin: miter; stroke-miterlimit: 4; fill-rule: evenodd; opacity: 1; --darkreader-inline-stroke: none; --darkreader-inline-fill: #cc5500;" vector-effect="non-scaling-stroke" d="M616.7149847656251,33.19675937499994 L600.3583847656253,33.19675937499994 C600.0229847656253,33.74795937499994 599.2403847656251,33.72715937499993 598.9257847656252,34.55655937499989 C596.1567847656252,41.820959374999916 495.1805847656253,56.74755937499992 481.81138476562523,64.72175937499992 C484.59078476562513,126.52115937499991 474.94998476562523,286.5927593750001 481.08078476562514,328.28115937500013 C496.2413847656253,328.6243593749999 537.2849847656253,311.1835593750001 557.559784765625,311.6463593750001 C557.0891847656249,351.3691593750001 543.3871847656251,404.13355937500035 539.289584765625,448.1697593750001 C538.462784765625,457.04875937500003 537.820584765625,461.9575593750002 536.0681847656249,469.4637593750002 L534.154584765625,486.67315937499995 C536.0655847656251,494.1481593750001 532.8935847656248,489.08855937500005 538.5719847656248,494.080559375 C543.7563847656247,472.7579593749998 568.8411847656248,416.24435937500004 579.007184765625,385.587759375 L620.399184765625,275.91455937500007 C589.144584765625,277.0299593750002 555.477184765625,294.3381593749999 526.1361847656249,294.53835937500014 C526.887584765625,285.51895937500024 532.823384765625,270.353159375 536.3099847656249,260.8917593750001 L548.355784765625,230.15455937500008 C552.5625847656249,218.30895937499997 554.6685847656249,208.3093593750001 558.9195847656249,196.7939593750001 L616.7149847656249,33.19675937499994 z" stroke-linecap="round" stroke-width="0" id="svg_27" data-darkreader-inline-stroke="" data-darkreader-inline-fill="" fill="#ff6a00" fill-opacity="1"/>
</g><g id="svg_28" class="" fill="#ff6a00" fill-opacity="1" data-darkreader-inline-fill="" style="--darkreader-inline-fill: #cc5500;">
<path style="stroke: none; stroke-width: 1; stroke-dasharray: none; stroke-linecap: butt; stroke-dashoffset: 0; stroke-linejoin: miter; stroke-miterlimit: 4; fill-rule: evenodd; opacity: 1; --darkreader-inline-stroke: none; --darkreader-inline-fill: #cc5500;" vector-effect="non-scaling-stroke" d="M470.37159746093744,126.69498476562501 C332.24919746093747,195.30118476562518 327.6809974609374,334.772984765625 477.0249974609376,453.5513847656249 L476.70519746093737,479.361584765625 L313.49279746093737,480.17538476562515 L299.8323974609374,407.47158476562515 C328.3309974609374,406.7253847656251 326.69299746093736,410.3367847656251 340.14279746093746,424.9071847656252 C355.6829974609374,441.7421847656252 352.7371974609374,439.9949847656252 383.99699746093745,438.46618476562514 C381.19939746093735,431.66978476562497 295.41499746093746,350.7343847656251 325.6035974609374,237.054584765625 C341.7911974609375,176.08978476562504 400.7617974609374,121.0555847656251 459.8753974609374,103.02458476562515 C463.2865974609374,113.1307847656251 470.37419746093747,126.69498476562512 470.37419746093747,126.69498476562512 z" stroke-linecap="round" stroke-width="0" id="svg_29" data-darkreader-inline-stroke="" data-darkreader-inline-fill="" fill="#ff6a00" fill-opacity="1"/>
</g><g id="svg_30" class="" fill="none" style="--darkreader-inline-fill: #cc5500; --darkreader-inline-stroke: #ff791a;" stroke-opacity="1" stroke="#ff6a00" data-darkreader-inline-stroke="">
<path style="stroke-width: 3; stroke-dasharray: none; stroke-linecap: butt; stroke-dashoffset: 0; stroke-linejoin: miter; stroke-miterlimit: 2.61; fill-rule: nonzero; opacity: 1; --darkreader-inline-stroke: #ff791a; --darkreader-inline-fill: #cc5500;" vector-effect="non-scaling-stroke" d="M1019.8302609374999,581.8274304687499 C1019.8302609374999,596.5902304687498 1007.9846609374998,608.5684304687501 993.3674609374999,608.5684304687501 C978.7580609375001,608.5684304687501 966.9098609375,596.5928304687499 966.9098609375,581.8274304687499 C966.9098609375,567.0620304687499 978.7554609375001,555.0890304687499 993.3674609374999,555.0890304687499 C1007.9846609375,555.0890304687499 1019.8302609374999,567.0646304687499 1019.8302609374999,581.8274304687499 " stroke-linecap="round" stroke-width="0" id="svg_31" data-darkreader-inline-stroke="" fill="none" fill-opacity="1" stroke="#ff6a00"/>
</g><g id="svg_32" class="" fill="#ff6a00" fill-opacity="1" data-darkreader-inline-fill="" style="--darkreader-inline-fill: #ff791a;">
<path style="stroke: none; stroke-width: 1; stroke-dasharray: none; stroke-linecap: butt; stroke-dashoffset: 0; stroke-linejoin: miter; stroke-miterlimit: 4; fill-rule: nonzero; opacity: 1; --darkreader-inline-stroke: none; --darkreader-inline-fill: #ff791a;" vector-effect="non-scaling-stroke" d="M991.2428050781249,580.746225390625 C993.1902050781249,580.746225390625 994.778805078125,580.4446253906252 995.7720050781248,579.560625390625 C997.3008050781249,578.2320253906252 997.930005078125,576.5030253906249 997.930005078125,574.267025390625 C997.930005078125,569.5428253906251 995.1714050781251,567.811225390625 992.6234050781251,567.811225390625 C991.456005078125,567.811225390625 990.855405078125,568.024425390625 990.5226050781251,568.2974253906251 C990.2236050781252,568.573025390625 990.1404050781249,569.054025390625 990.1404050781249,569.932825390625 L990.1404050781249,580.746225390625 L991.2428050781249,580.746225390625 zM1008.122005078125,595.2464253906252 C1007.9114050781249,595.2464253906252 1007.4278050781248,595.2178253906253 1006.920805078125,595.2178253906253 C1001.226805078125,594.9448253906252 999.4874050781249,593.6734253906253 997.693405078125,590.8862253906253 C996.5182050781249,589.0688253906254 995.3534050781251,586.7080253906255 994.0352050781252,584.3472253906253 C993.2812050781253,583.0446253906254 992.4440050781251,582.5038253906254 991.0062050781252,582.5038253906254 L990.1404050781251,582.5038253906254 L990.1404050781251,588.8894253906254 C990.1404050781251,592.5216253906254 990.5850050781252,592.9168253906254 993.9728050781251,593.2834253906254 L993.9728050781251,594.8538253906253 L980.4528050781252,594.8538253906253 L980.4528050781252,593.2834253906254 C983.7808050781251,592.9168253906254 984.350205078125,592.5216253906252 984.350205078125,588.8894253906254 L984.350205078125,571.9582253906254 C984.350205078125,568.4144253906255 983.9030050781249,567.9048253906254 980.6348050781252,567.6292253906255 L980.6348050781252,566.0536253906256 L993.0758050781252,566.0536253906256 C997.1214050781253,566.0536253906256 999.3964050781252,566.4774253906256 1001.2268050781253,567.7202253906254 C1002.9636050781254,568.9318253906255 1004.1882050781254,570.8948253906254 1004.1882050781254,573.6248253906255 C1004.1882050781254,577.5638253906253 1001.5882050781253,579.6802253906254 998.6138050781254,580.8268253906255 C999.2716050781254,582.1346253906253 1000.9226050781255,585.0700253906253 1002.2720050781255,587.1006253906254 C1003.8632050781254,589.5524253906254 1004.8512050781254,591.0058253906255 1005.7222050781255,591.9418253906255 C1006.6452050781255,592.9402253906254 1007.3394050781257,593.3952253906253 1008.3846050781254,593.7618253906254 L1008.1194050781254,595.2412253906253 z" stroke-linecap="round" stroke-width="0" id="svg_33" data-darkreader-inline-stroke="" data-darkreader-inline-fill="" fill="#ff6a00" fill-opacity="1"/>
</g></g></svg>