<?xml version="1.0" encoding="UTF-8" standalone="no" ?>
<!DOCTYPE svg PUBLIC "-//W3C//DTD SVG 1.1//EN" "http://www.w3.org/Graphics/SVG/1.1/DTD/svg11.dtd">
<svg xmlns="http://www.w3.org/2000/svg" xmlns:xlink="http://www.w3.org/1999/xlink" version="1.1" width="1080" height="1080" viewBox="0 0 1080 1080" xml:space="preserve">
<desc>Created with Fabric.js 5.2.4</desc>
<defs>
</defs>
<g transform="matrix(1 0 0 1 540 540)" id="e126aeeb-d0de-44a4-935f-cb2e582631ac"  >
</g>
<g transform="matrix(1 0 0 1 540 540)" id="325ead2c-ff0f-4046-b3f2-593ce7c4ca2b"  >
<rect style="stroke: none; stroke-width: 1; stroke-dasharray: none; stroke-linecap: butt; stroke-dashoffset: 0; stroke-linejoin: miter; stroke-miterlimit: 4; fill: rgb(255,255,255); fill-rule: nonzero; opacity: 1; visibility: hidden;" vector-effect="non-scaling-stroke"  x="-540" y="-540" rx="0" ry="0" width="1080" height="1080" />
</g>
<g transform="matrix(0 0 0 0 0 0)"  >
<g style=""   >
</g>
</g>
<g transform="matrix(0 0 0 0 0 0)"  >
<g style=""   >
</g>
</g>
<g transform="matrix(0.26 0 0 0.26 760.47 659.44)"  >
<path style="stroke: none; stroke-width: 1; stroke-dasharray: none; stroke-linecap: butt; stroke-dashoffset: 0; stroke-linejoin: miter; stroke-miterlimit: 4; fill: rgb(254,254,254); fill-rule: nonzero; opacity: 1;" vector-effect="non-scaling-stroke"  transform=" translate(-5126.49, -5995.72)" d="M 4041.86 6371.22 L 4041.86 5620.21 L 4592 5620.21 L 4592 5747.13 L 4192.37 5747.13 L 4192.37 5913.91 L 4563.98 5913.91 L 4563.98 6040.82 L 4192.37 6040.82 L 4192.37 6244.299999999999 L 4606.54 6244.299999999999 L 4606.54 6371.219999999999 L 4041.87 6371.219999999999 z M 6211.110000000001 6371.22 L 6049.01 6371.22 L 5984.83 6200.25 L 5686.75 6200.25 L 5624.99 6371.22 L 5465.83 6371.22 L 5754.39 5620.21 L 5913.38 5620.21 L 6211.110000000001 6371.22 z M 5936.040000000001 6073.33 L 5832.760000000001 5795.37 L 5732.420000000001 6073.33 L 5936.040000000001 6073.33 z" stroke-linecap="round" />
</g>
<g transform="matrix(0.26 0 0 0.26 783.16 654.06)"  >
<polygon style="stroke: none; stroke-width: 1; stroke-dasharray: none; stroke-linecap: butt; stroke-dashoffset: 0; stroke-linejoin: miter; stroke-miterlimit: 4; fill: rgb(254,254,254); fill-rule: evenodd; opacity: 1;" vector-effect="non-scaling-stroke"  points="-157.26,-61.84 157.26,-61.84 14.31,61.84 -157.26,61.84 " />
</g>
<g transform="matrix(0.26 0 0 0.26 731.93 657.28)"  >
<path style="stroke: none; stroke-width: 1; stroke-dasharray: none; stroke-linecap: butt; stroke-dashoffset: 0; stroke-linejoin: miter; stroke-miterlimit: 4; fill: rgb(254,254,254); fill-rule: evenodd; opacity: 1;" vector-effect="non-scaling-stroke"  transform=" translate(-5045.15, -5987.34)" d="M 5097.8 5617.81 C 5199.71 5617.81 5291.87 5659.950000000001 5358.1900000000005 5727.900000000001 L 5270.09 5812.790000000001 C 5225.96 5768.310000000001 5165.05 5740.810000000001 5097.8 5740.810000000001 C 4963.06 5740.810000000001 4853.83 5851.180000000001 4853.83 5987.340000000001 C 4853.83 6123.490000000001 4963.0599999999995 6233.870000000001 5097.8 6233.870000000001 C 5165.06 6233.870000000001 5225.96 6206.370000000001 5270.09 6161.890000000001 L 5358.1900000000005 6246.770000000001 C 5291.88 6314.730000000001 5199.710000000001 6356.870000000002 5097.8 6356.870000000002 C 4895.84 6356.870000000002 4732.1 6191.420000000002 4732.1 5987.340000000002 C 4732.1 5783.250000000002 4895.83 5617.810000000002 5097.8 5617.810000000002 z" stroke-linecap="round" />
</g>
<g transform="matrix(0.26 0 0 0.26 556.13 947.35)"  >
<path style="stroke: none; stroke-width: 1; stroke-dasharray: none; stroke-linecap: butt; stroke-dashoffset: 0; stroke-linejoin: miter; stroke-miterlimit: 4; fill: rgb(254,254,254); fill-rule: evenodd; opacity: 1;" vector-effect="non-scaling-stroke"  transform=" translate(-4279.07, -7138.57)" d="M 5347.91 7473.41 C 5324.17 7502.76 5296.0599999999995 7529.32 5263.25 7546.19 C 5247.86 7554.099999999999 5231.39 7559.419999999999 5214.51 7562.8099999999995 L 5214.51 7567.7699999999995 L 4282.88 7567.7699999999995 C 4255.29 7567.7699999999995 4227.91 7563.639999999999 4203.53 7549.86 C 4185.469999999999 7539.66 4170.07 7525.58 4156.849999999999 7509.54 C 4142.379999999999 7526.89 4124.78 7541.28 4103.389999999999 7551.1 C 4073.7399999999993 7564.7300000000005 4039.0799999999995 7567.77 4006.8699999999994 7567.77 L 2580.4499999999994 7567.77 L 2580.4499999999994 7562.860000000001 C 2526.4499999999994 7552.170000000001 2479.899999999999 7524.410000000001 2440.8699999999994 7482.84 C 2389.3299999999995 7427.93 2361.8799999999997 7362.29 2361.8799999999997 7286.49 L 2361.8799999999997 6711.8099999999995 L 2530.7899999999995 6711.8099999999995 L 2530.7899999999995 7276.889999999999 C 2530.7899999999995 7308.259999999999 2539.8199999999997 7335.349999999999 2560.2799999999993 7359.0199999999995 C 2578.209999999999 7379.759999999999 2599.9299999999994 7392.009999999999 2626.4699999999993 7397.089999999999 L 3468.5599999999995 7397.089999999999 L 3468.5599999999995 7398.3099999999995 L 4004.8499999999995 7398.3099999999995 C 4033.8099999999995 7398.3099999999995 4064.8099999999995 7394.3099999999995 4070.8099999999995 7361.66 C 4071.9499999999994 7330.55 4067.7899999999995 7296.49 4067.7899999999995 7265.01 C 4067.7899999999995 7249.74 4059.6499999999996 7239.05 4047.8399999999997 7230.150000000001 C 4033.6699999999996 7219.460000000001 4018.2799999999997 7214.080000000001 4000.5899999999997 7214.080000000001 L 3673.64 7214.080000000001 C 3611.69 7214.080000000001 3499.77 7193.950000000001 3456.13 7147.910000000001 C 3419.2200000000003 7108.950000000001 3389.65 7040.590000000001 3389.65 6986.320000000001 C 3389.65 6907.150000000001 3425.07 6836.360000000001 3480.08 6781.31 C 3530.4 6730.96 3609.15 6713.030000000001 3677.89 6713.030000000001 L 4238.46 6713.030000000001 L 4015.8 6882.490000000001 L 3678.3 6882.490000000001 C 3648.57 6882.490000000001 3623.17 6892.010000000001 3600.82 6911.830000000001 C 3598.38 6914.000000000001 3596.01 6916.240000000001 3593.73 6918.570000000001 C 3561.62 6951.4400000000005 3541.72 6991.620000000001 3586.6 7021.81 C 3587.22 7022.2300000000005 3587.85 7022.64 3588.48 7023.05 C 3612.97 7038.7 3645.46 7044.62 3674.04 7044.62 L 3946.4 7044.62 C 4014.17 7044.62 4080.83 7058.65 4138.56 7095.8 C 4199.43 7134.96 4234.26 7191.72 4234.26 7264.97 C 4234.56 7280.59 4236 7297.13 4237.04 7312.76 C 4237.92 7326.01 4238.39 7342.27 4240.34 7355.570000000001 C 4245.84 7367.4800000000005 4264.29 7376.77 4274.97 7381.39 C 4293.21 7389.26 4312.21 7394.8 4331.93 7397.110000000001 L 5153.150000000001 7397.110000000001 L 5157.06 7396.68 C 5186.88 7393.4400000000005 5211.09 7381.570000000001 5230.320000000001 7358.200000000001 C 5250.280000000001 7333.9800000000005 5258.710000000001 7306.06 5258.710000000001 7274.650000000001 C 5258.710000000001 7195.110000000001 5291.120000000001 7127.68 5346.710000000001 7072.040000000001 C 5402.350000000001 7016.360000000001 5469.230000000001 6983.960000000001 5547.990000000001 6983.960000000001 C 5627.7300000000005 6983.960000000001 5695.81 7016.520000000001 5753.1 7071.830000000001 C 5810.64 7127.380000000001 5844.96 7195.430000000001 5844.96 7276.4800000000005 C 5844.96 7355.96 5810.46 7423.000000000001 5755.12 7478.280000000001 C 5699.68 7533.68 5632.97 7567.77 5554.2699999999995 7567.77 C 5518.3099999999995 7567.77 5474.45 7565.25 5441.03 7550.790000000001 C 5404.07 7534.800000000001 5373.25 7505.760000000001 5347.92 7473.400000000001 z M 6196.26 6709.37 L 6196.26 7567.78 L 6027.35 7567.78 L 6027.35 6709.37 L 6196.26 6709.37 z M 5676.04 7277.1 C 5676.04 7246.6900000000005 5659.16 7219.96 5639.34 7198.370000000001 C 5616.18 7173.160000000001 5588.57 7155.880000000001 5553.860000000001 7155.880000000001 C 5520.710000000001 7155.880000000001 5492.31 7173.350000000001 5468.830000000001 7195.680000000001 C 5445.890000000001 7217.490000000002 5427.620000000001 7244.240000000002 5427.620000000001 7277.1100000000015 C 5427.620000000001 7310.830000000002 5440.740000000001 7338.170000000002 5464.460000000001 7361.670000000002 C 5488.390000000001 7385.380000000002 5516.060000000001 7398.340000000002 5549.810000000001 7398.340000000002 C 5584.490000000002 7398.340000000002 5613.200000000002 7385.310000000002 5638.250000000001 7361.430000000002 C 5662.600000000001 7338.220000000002 5676.050000000001 7311.110000000002 5676.050000000001 7277.110000000002 z" stroke-linecap="round" />
</g>
<g transform="matrix(0.26 0 0 0.26 555.79 947)"  >
<path style="stroke: none; stroke-width: 1; stroke-dasharray: none; stroke-linecap: butt; stroke-dashoffset: 0; stroke-linejoin: miter; stroke-miterlimit: 4; fill: rgb(254,254,254); fill-rule: nonzero; opacity: 1;" vector-effect="non-scaling-stroke"  transform=" translate(-4279.08, -7138.58)" d="M 2631.75 7534.55 C 2567.05 7534.55 2511.24 7509.62 2464.74 7459.9800000000005 C 2418.0299999999997 7410.330000000001 2394.7799999999997 7352.51 2394.7799999999997 7286.51 L 2394.7799999999997 6745.07 L 2497.8999999999996 6745.07 L 2497.8999999999996 7276.91 C 2497.8999999999996 7317.36 2510.43 7351.889999999999 2535.5099999999998 7380.91 C 2560.58 7409.92 2592.5299999999997 7426.67 2631.7599999999998 7431.58 L 2631.7599999999998 7534.55 z M 3435.67 7534.55 L 2613.35 7534.55 L 2613.35 7430.35 L 3435.67 7430.35 L 3435.67 7534.55 z M 4352.84 7534.55 L 4302.49 7534.55 L 4282.88 7534.55 C 4258 7534.55 4237.06 7530.7300000000005 4219.59 7520.860000000001 C 4196.21 7507.64 4175.110000000001 7483.880000000001 4156.1 7448.93 C 4139.52 7484.280000000001 4117.450000000001 7508.13 4089.78 7520.860000000001 C 4068.1200000000003 7530.81 4040.4500000000003 7534.55 4006.88 7534.55 L 3981.4 7534.55 L 3408.58 7534.55 L 3408.58 7431.58 L 4004.8599999999997 7431.58 C 4063.6699999999996 7431.58 4096.58 7409.51 4103.549999999999 7365.53 C 4104.48 7359.63 4100.699999999999 7271.75 4100.699999999999 7265.03 C 4100.699999999999 7240.92 4089.6299999999987 7220.19 4067.539999999999 7203.53 C 4047.389999999999 7188.34 4025.059999999999 7180.849999999999 4000.609999999999 7180.849999999999 L 3673.649999999999 7180.849999999999 C 3608.769999999999 7180.849999999999 3511.959999999999 7158.74 3479.909999999999 7124.919999999999 C 3450.709999999999 7094.109999999999 3422.559999999999 7034.299999999999 3422.559999999999 6986.319999999999 C 3422.559999999999 6921.559999999999 3450.009999999999 6858.189999999999 3503.239999999999 6804.9299999999985 C 3544.929999999999 6763.209999999998 3613.6099999999988 6746.269999999999 3677.909999999999 6746.269999999999 L 4140.129999999999 6746.269999999999 L 4004.8199999999993 6849.249999999998 L 3678.3099999999995 6849.249999999998 C 3640.4599999999996 6849.249999999998 3607.3899999999994 6861.789999999998 3579.1299999999997 6886.859999999998 C 3576.1499999999996 6889.5099999999975 3573.2 6892.289999999998 3570.3299999999995 6895.229999999998 C 3507.2499999999995 6959.799999999997 3520.0899999999997 7016.989999999998 3568.3699999999994 7049.489999999998 C 3569.1999999999994 7050.049999999998 3570.0599999999995 7050.609999999998 3570.9099999999994 7051.149999999998 C 3597.3899999999994 7068.079999999998 3633.8399999999992 7077.869999999998 3674.0399999999995 7077.869999999998 L 3946.3999999999996 7077.869999999998 C 4014.9399999999996 7077.869999999998 4073.2099999999996 7093.169999999998 4120.9 7123.839999999998 C 4174.5 7158.319999999998 4201.379999999999 7205.569999999998 4201.379999999999 7265.229999999999 C 4201.379999999999 7271.509999999998 4206.619999999999 7359.029999999999 4208.569999999999 7364.689999999999 C 4215.169999999999 7383.909999999999 4233.0999999999985 7399.439999999999 4262.059999999999 7411.949999999999 C 4291.859999999999 7424.819999999999 4321.909999999999 7431.569999999999 4352.8499999999985 7431.569999999999 L 4352.8499999999985 7534.539999999999 z M 5181.610000000001 7534.55 L 4327.360000000001 7534.55 L 4327.360000000001 7430.35 L 5181.610000000001 7430.35 L 5181.610000000001 7534.55 z M 5812.06 7276.49 C 5812.06 7341.88 5785.370000000001 7401.33 5731.990000000001 7454.66 C 5678.620000000001 7507.98 5619.370000000001 7534.55 5554.260000000001 7534.55 C 5509.5700000000015 7534.55 5476.200000000001 7529.860000000001 5453.970000000001 7520.25 C 5417.170000000001 7504.33 5381.990000000002 7469.79 5348.430000000001 7416.66 C 5316.0700000000015 7465.7 5282.670000000001 7498.92 5248.340000000001 7516.57 C 5225.050000000001 7528.54 5195.770000000001 7534.549999999999 5160.580000000001 7534.549999999999 L 5160.580000000001 7429.739999999999 C 5200.010000000001 7425.449999999999 5231.56 7408.689999999999 5255.620000000001 7379.479999999999 C 5279.680000000001 7350.259999999998 5291.610000000001 7315.329999999999 5291.610000000001 7274.669999999998 C 5291.610000000001 7207.649999999998 5317.650000000001 7147.939999999999 5369.860000000001 7095.689999999999 C 5422.18 7043.339999999998 5481.47 7017.229999999999 5548.000000000001 7017.229999999999 C 5615.330000000001 7017.229999999999 5676.000000000001 7043.379999999998 5730.390000000001 7095.8899999999985 C 5784.780000000002 7148.399999999999 5812.080000000001 7208.669999999998 5812.080000000001 7276.499999999998 z M 5708.9400000000005 7277.11 C 5708.9400000000005 7242.58 5693.710000000001 7208.719999999999 5663.4400000000005 7175.759999999999 C 5631.030000000001 7140.469999999999 5594.490000000001 7122.639999999999 5553.85 7122.639999999999 C 5516.4400000000005 7122.639999999999 5480.450000000001 7138.98 5446.280000000001 7171.469999999999 C 5411.910000000001 7204.159999999999 5394.72 7239.299999999999 5394.72 7277.099999999999 C 5394.72 7318.37 5410.29 7354.539999999999 5441.42 7385.389999999999 C 5472.56 7416.24 5508.75 7431.57 5549.8 7431.57 C 5591.66 7431.57 5628.66 7416.24 5660.81 7385.59 C 5692.96 7354.9400000000005 5708.93 7318.78 5708.93 7277.1 z M 6163.370000000001 6742.61 L 6163.370000000001 7534.549999999999 L 6060.250000000001 7534.549999999999 L 6060.250000000001 6742.609999999999 L 6163.370000000001 6742.609999999999 z" stroke-linecap="round" />
</g>
<g transform="matrix(0.26 0 0 0.26 450.41 821.35)"  >
<polygon style="stroke: none; stroke-width: 1; stroke-dasharray: none; stroke-linecap: butt; stroke-dashoffset: 0; stroke-linejoin: miter; stroke-miterlimit: 4; fill: rgb(254,254,254); fill-rule: nonzero; opacity: 1;" vector-effect="non-scaling-stroke"  points="-221,-44.13 221,-44.13 114.75,44.13 -221,44.13 " />
</g>
<g transform="matrix(0.26 0 0 0.26 990.97 804.31)"  >
<path style="stroke: none; stroke-width: 1; stroke-dasharray: none; stroke-linecap: butt; stroke-dashoffset: 0; stroke-linejoin: miter; stroke-miterlimit: 4; fill: rgb(254,254,254); fill-rule: nonzero; opacity: 1;" vector-effect="non-scaling-stroke"  transform=" translate(-6085.5, -6583.66)" d="M 6095.79 6645.17 C 6075.08 6665.67 6057.92 6675.91 6043.92 6675.91 L 6013.06 6675.91 C 6027.92 6668.84 6045.21 6657.29 6064.93 6641.41 C 6082.79 6626.97 6096.360000000001 6614.26 6105.5 6603.15 C 6096.78 6597.8099999999995 6090.21 6592.179999999999 6085.79 6586.259999999999 C 6080.22 6578.909999999999 6077.35 6570.82 6077.35 6562.159999999999 C 6077.35 6543.539999999999 6082.79 6527.079999999999 6093.64 6512.779999999999 C 6104.490000000001 6498.489999999999 6116.360000000001 6491.409999999999 6129.08 6491.409999999999 C 6136.5 6491.409999999999 6143.08 6495.309999999999 6149.08 6503.259999999999 C 6154.95 6511.199999999999 6157.94 6520.719999999999 6157.94 6532.129999999999 C 6157.94 6537.469999999999 6157.23 6542.959999999999 6155.65 6548.739999999999 C 6144.599999999999 6590.319999999999 6124.78 6615.8899999999985 6095.79 6645.1799999999985 z M 6131.36 6557.67 C 6131.36 6550.03 6128.65 6543.09 6123.36 6536.6 C 6117.929999999999 6530.1 6112.79 6526.93 6107.65 6526.93 C 6104.799999999999 6526.93 6102.65 6527.9400000000005 6101.08 6529.820000000001 C 6099.51 6531.85 6098.79 6533.860000000001 6098.79 6535.750000000001 C 6098.79 6541.950000000001 6102.36 6548.300000000001 6109.36 6555.080000000001 L 6127.94 6569.380000000001 C 6130.23 6563.750000000001 6131.36 6559.850000000001 6131.36 6557.680000000001 z" stroke-linecap="round" />
</g>
<g transform="matrix(0.26 0 0 0.26 43.54 900.24)"  >
<path style="stroke: none; stroke-width: 1; stroke-dasharray: none; stroke-linecap: butt; stroke-dashoffset: 0; stroke-linejoin: miter; stroke-miterlimit: 4; fill: rgb(254,254,254); fill-rule: nonzero; opacity: 1;" vector-effect="non-scaling-stroke"  transform=" translate(-2318.95, -6958.75)" d="M 2288.98 6709 L 2288.98 7064.04 C 2287.06 7137.88 2322.77 7181.87 2349 7208.5 L 2349 6709.01 L 2288.98 6709.01 z" stroke-linecap="round" />
</g>
<g transform="matrix(0.26 0 0 0.26 254.74 659.39)"  >
<path style="stroke: none; stroke-width: 1; stroke-dasharray: none; stroke-linecap: butt; stroke-dashoffset: 0; stroke-linejoin: miter; stroke-miterlimit: 4; fill: rgb(254,254,254); fill-rule: nonzero; opacity: 1;" vector-effect="non-scaling-stroke"  transform=" translate(-3125.49, -5994.77)" d="M 2680.14 5601.27 C 2784.99 5601.27 2875.17 5639.790000000001 2950.6 5716.4400000000005 C 3026.11 5793.18 3063.88 5886.750000000001 3063.88 5997.030000000001 C 3063.88 6106.450000000001 3026.62 6198.97 2952.1600000000003 6274.670000000001 C 2877.76 6350.280000000001 2787.4100000000003 6388.270000000001 2681.1800000000003 6388.270000000001 C 2569.7900000000004 6388.270000000001 2477.38 6349.230000000001 2403.84 6271.540000000002 C 2330.23 6193.760000000002 2293.32 6101.410000000002 2293.32 5994.420000000002 C 2293.32 5922.930000000002 2310.52 5856.960000000002 2344.79 5796.810000000002 C 2378.99 5736.810000000002 2426.23 5689.060000000002 2486.13 5653.9900000000025 C 2546.17 5618.830000000003 2610.9500000000003 5601.270000000002 2680.15 5601.270000000002 z M 2678.08 5741.13 C 2609.74 5741.13 2552.2599999999998 5765.39 2505.7599999999998 5813.5 C 2459.18 5861.72 2435.87 5922.93 2435.87 5997.37 C 2435.87 6080.18 2465.25 6145.67 2523.8399999999997 6193.95 C 2569.5199999999995 6231.5599999999995 2621.62 6250.49 2680.6699999999996 6250.49 C 2747.2999999999997 6250.49 2804.0899999999997 6225.88 2850.9299999999994 6177.08 C 2897.8499999999995 6128.17 2921.3399999999992 6068 2921.3399999999992 5996.34 C 2921.3399999999992 5925.01 2897.669999999999 5864.66 2850.4099999999994 5815.24 C 2803.2099999999996 5765.91 2745.7399999999993 5741.13 2678.0799999999995 5741.13 z M 3213.75 5620.06 L 3350.61 5620.06 L 3523.28 6142.820000000001 L 3696.8300000000004 5620.06 L 3833.3500000000004 5620.06 L 3957.6500000000005 6369.490000000001 L 3821.4700000000007 6369.490000000001 L 3742.2800000000007 5896.150000000001 L 3585.2800000000007 6369.490000000001 L 3460.6300000000006 6369.490000000001 L 3304.3100000000004 5896.150000000001 L 3223.5700000000006 6369.490000000001 L 3085.850000000001 6369.490000000001 L 3213.770000000001 5620.06 z" stroke-linecap="round" />
</g>
<g transform="matrix(0.26 0 0 0.26 674.76 291.6)"  >
<path style="stroke: none; stroke-width: 1; stroke-dasharray: none; stroke-linecap: butt; stroke-dashoffset: 0; stroke-linejoin: miter; stroke-miterlimit: 4; fill: rgb(254,254,254); fill-rule: evenodd; opacity: 1;" vector-effect="non-scaling-stroke"  transform=" translate(-4816.59, -4518.06)" d="M 4501.43 3883.81 C 5032.67 4147.68 5050.24 4684.11 4475.84 5140.95 L 4477.07 5240.22 L 5104.8099999999995 5243.35 L 5157.349999999999 4963.72 C 5047.74 4960.85 5054.039999999999 4974.740000000001 5002.3099999999995 5030.780000000001 C 4942.539999999999 5095.530000000001 4953.87 5088.81 4833.639999999999 5082.93 C 4844.4 5056.79 5174.339999999999 4745.5 5058.23 4308.27 C 4995.969999999999 4073.7900000000004 4769.16 3862.1200000000003 4541.799999999999 3792.7700000000004 C 4528.679999999999 3831.6400000000003 4501.419999999999 3883.8100000000004 4501.419999999999 3883.8100000000004 z" stroke-linecap="round" />
</g>
<g transform="matrix(0.26 0 0 0.26 549.7 263.64)"  >
<path style="stroke: none; stroke-width: 1; stroke-dasharray: none; stroke-linecap: butt; stroke-dashoffset: 0; stroke-linejoin: miter; stroke-miterlimit: 4; fill: rgb(254,254,254); fill-rule: evenodd; opacity: 1;" vector-effect="non-scaling-stroke"  transform=" translate(-4322.06, -4400.16)" d="M 4579.81 3513.84 L 4516.900000000001 3513.84 C 4515.610000000001 3515.96 4512.6 3515.88 4511.39 3519.07 C 4500.740000000001 3547.01 4112.370000000001 3604.42 4060.9500000000003 3635.09 C 4071.6400000000003 3872.78 4034.5600000000004 4488.4400000000005 4058.1400000000003 4648.780000000001 C 4116.450000000001 4650.1 4274.31 4583.02 4352.29 4584.800000000001 C 4350.48 4737.580000000001 4297.78 4940.520000000001 4282.0199999999995 5109.890000000001 C 4278.839999999999 5144.040000000001 4276.37 5162.920000000001 4269.629999999999 5191.790000000001 L 4262.2699999999995 5257.9800000000005 C 4269.62 5286.7300000000005 4257.419999999999 5267.27 4279.259999999999 5286.47 C 4299.199999999999 5204.46 4395.679999999999 4987.1 4434.78 4869.1900000000005 L 4593.98 4447.370000000001 C 4473.7699999999995 4451.660000000001 4344.28 4518.2300000000005 4231.429999999999 4519.000000000001 C 4234.32 4484.310000000001 4257.15 4425.9800000000005 4270.5599999999995 4389.590000000001 L 4316.889999999999 4271.370000000001 C 4333.07 4225.81 4341.169999999999 4187.35 4357.5199999999995 4143.06 L 4579.8099999999995 3513.84 z" stroke-linecap="round" />
</g>
<g transform="matrix(0.26 0 0 0.26 388.43 291.6)"  >
<path style="stroke: none; stroke-width: 1; stroke-dasharray: none; stroke-linecap: butt; stroke-dashoffset: 0; stroke-linejoin: miter; stroke-miterlimit: 4; fill: rgb(254,254,254); fill-rule: evenodd; opacity: 1;" vector-effect="non-scaling-stroke"  transform=" translate(-3677.76, -4518.06)" d="M 3992.92 3883.81 C 3461.6800000000003 4147.68 3444.11 4684.11 4018.51 5140.95 L 4017.28 5240.22 L 3389.54 5243.35 L 3337 4963.72 C 3446.61 4960.85 3440.31 4974.740000000001 3492.04 5030.780000000001 C 3551.81 5095.530000000001 3540.48 5088.81 3660.71 5082.93 C 3649.95 5056.79 3320.01 4745.5 3436.12 4308.27 C 3498.38 4073.7900000000004 3725.19 3862.1200000000003 3952.5499999999997 3792.7700000000004 C 3965.6699999999996 3831.6400000000003 3992.93 3883.8100000000004 3992.93 3883.8100000000004 z" stroke-linecap="round" />
</g>
<g transform="matrix(0.26 0 0 0.26 993.37 581.83)"  >
<path style="stroke: rgb(254,254,254); stroke-width: 3; stroke-dasharray: none; stroke-linecap: butt; stroke-dashoffset: 0; stroke-linejoin: miter; stroke-miterlimit: 2.61; fill: none; fill-rule: nonzero; opacity: 1;" vector-effect="non-scaling-stroke"  transform=" translate(-6093.76, -5698.38)" d="M 6195.53 5698.37 C 6195.53 5755.15 6149.969999999999 5801.22 6093.75 5801.22 C 6037.56 5801.22 5991.99 5755.16 5991.99 5698.37 C 5991.99 5641.58 6037.55 5595.53 6093.75 5595.53 C 6149.97 5595.53 6195.53 5641.59 6195.53 5698.37" stroke-linecap="round" />
</g>
<g transform="matrix(0.26 0 0 0.26 994.42 580.65)"  >
<path style="stroke: none; stroke-width: 1; stroke-dasharray: none; stroke-linecap: butt; stroke-dashoffset: 0; stroke-linejoin: miter; stroke-miterlimit: 4; fill: rgb(254,254,254); fill-rule: nonzero; opacity: 1;" vector-effect="non-scaling-stroke"  transform=" translate(-6099.98, -5695.65)" d="M 6087.76 5696.02 C 6095.25 5696.02 6101.360000000001 5694.860000000001 6105.18 5691.46 C 6111.06 5686.35 6113.4800000000005 5679.7 6113.4800000000005 5671.1 C 6113.4800000000005 5652.93 6102.870000000001 5646.27 6093.070000000001 5646.27 C 6088.580000000001 5646.27 6086.27 5647.09 6084.990000000001 5648.14 C 6083.840000000001 5649.200000000001 6083.52 5651.05 6083.52 5654.43 L 6083.52 5696.02 L 6087.76 5696.02 z M 6152.68 5751.790000000001 C 6151.87 5751.790000000001 6150.01 5751.680000000001 6148.06 5751.680000000001 C 6126.160000000001 5750.630000000001 6119.47 5745.740000000002 6112.570000000001 5735.020000000001 C 6108.05 5728.030000000002 6103.570000000001 5718.950000000002 6098.500000000001 5709.870000000002 C 6095.600000000001 5704.8600000000015 6092.380000000001 5702.780000000002 6086.850000000001 5702.780000000002 L 6083.520000000001 5702.780000000002 L 6083.520000000001 5727.340000000002 C 6083.520000000001 5741.310000000002 6085.230000000001 5742.830000000002 6098.260000000001 5744.240000000002 L 6098.260000000001 5750.280000000002 L 6046.260000000001 5750.280000000002 L 6046.260000000001 5744.240000000002 C 6059.060000000001 5742.830000000002 6061.250000000001 5741.310000000001 6061.250000000001 5727.340000000002 L 6061.250000000001 5662.220000000002 C 6061.250000000001 5648.590000000002 6059.530000000001 5646.630000000002 6046.960000000001 5645.570000000002 L 6046.960000000001 5639.510000000002 L 6094.810000000001 5639.510000000002 C 6110.370000000002 5639.510000000002 6119.120000000002 5641.140000000002 6126.160000000002 5645.920000000002 C 6132.840000000002 5650.580000000002 6137.550000000002 5658.130000000002 6137.550000000002 5668.630000000002 C 6137.550000000002 5683.780000000002 6127.550000000002 5691.920000000002 6116.110000000002 5696.330000000002 C 6118.640000000002 5701.3600000000015 6124.9900000000025 5712.6500000000015 6130.180000000002 5720.460000000002 C 6136.300000000002 5729.890000000002 6140.100000000002 5735.480000000002 6143.450000000003 5739.080000000002 C 6147.000000000003 5742.920000000002 6149.670000000003 5744.670000000002 6153.690000000002 5746.080000000002 L 6152.670000000002 5751.770000000001 z" stroke-linecap="round" />
</g>
</svg>